<svg width="142" height="41" viewBox="0 0 142 41" fill="none" xmlns="http://www.w3.org/2000/svg">
<path d="M13.3725 36.2851L18.447 31.7058L32.331 40.0078L51.5047 12.6214L41.8834 10.5145L44.7657 1.1164L35.0185 0L29.6963 2.41549L40.3245 4.02311L37.5639 14.4199L34.5192 13.5836L36.0415 6.83238L24.7314 4.66859L17.6513 7.87571L29.7085 10.9854L27.7558 23.2861L23.6596 21.5608L24.3538 14.497L11.9029 10.4779L0 15.8773L12.5768 22.2184L13.3725 36.2851Z" fill="white"/>
<path d="M134.898 10.0879C132.84 10.0879 131.212 10.575 127.12 11.9431C126.17 10.8511 124.599 10.1041 122.354 10.1041C120.275 10.1041 118.753 10.64 115.274 11.9431V10.5263H108.851V31.7786H115.497V15.1503C116.654 14.9026 117.799 14.7605 118.68 14.7605C121.205 14.7605 122.033 15.7024 122.033 17.6064V31.7786H128.679V16.8675C128.679 16.2951 128.666 16.0556 128.532 15.4629C128.528 15.3898 128.52 15.3086 128.492 15.203C129.966 14.9067 130.794 14.789 131.667 14.7808C134.313 14.7524 135.263 15.6983 135.263 18.1057V31.7745H141.905V17.3181C141.905 11.6387 138.933 10.0879 134.894 10.0879H134.898Z" fill="white"/>
<path d="M97.3463 31.7955V30.4153C94.736 31.5195 93.1609 32.1122 91.2731 32.1122C87.8671 32.1122 84.7817 29.9322 84.7817 25.5193C84.7817 21.1065 87.3312 19.2837 91.5492 18.8087C93.3273 18.5936 95.1257 18.5367 97.1474 18.5367V16.8763C97.1474 15.0008 95.8483 14.3188 93.5384 14.3188C91.6263 14.3188 89.1215 14.5542 86.6898 14.9845V11.5663C90.4571 10.6367 93.242 10.1211 95.8199 10.1211C98.0081 10.1211 99.9689 10.5758 101.252 11.5501C102.705 12.634 103.456 14.2863 103.456 17.3919V31.7955H97.3423H97.3463ZM97.1474 21.8738C95.5073 21.9306 94.7888 21.9631 93.9362 22.1092C92.1784 22.4259 91.2691 23.3352 91.2691 24.9266C91.2691 27.0945 92.7102 27.9064 94.7116 27.9064C95.5195 27.9064 96.3801 27.8008 97.1434 27.6141V21.8778L97.1474 21.8738Z" fill="white"/>
<path d="M81.3026 20.4606C81.3026 28.4703 75.339 32.1159 69.2901 32.1159C66.6595 32.1159 64.0938 31.6368 60.436 30.7072V0H67.0573V11.7811C69.6108 10.6809 71.052 10.1207 72.9073 10.1207C77.4338 10.1207 81.2986 13.5105 81.2986 20.4606H81.3026ZM74.5555 21.1914C74.5555 16.1899 71.7097 14.8136 69.3307 14.8136C68.5188 14.8136 67.9058 14.8908 67.0573 15.0613V27.9547C67.7393 28.0319 68.2833 28.0643 68.8233 28.0481C72.3186 27.975 74.5555 25.8924 74.5555 21.1914Z" fill="white"/>
</svg>
