<svg width="97" height="35" viewBox="0 0 97 35" fill="none" xmlns="http://www.w3.org/2000/svg">
<g clip-path="url(#clip0_2085_6923)">
<path d="M35.4785 16.7948C35.4842 15.6804 36.1564 15.0276 37.1362 15.0276C38.1104 15.0276 38.6971 15.6579 38.6914 16.716V21.7927H41.1182V16.2883C41.1182 14.2734 39.9219 13.0352 38.099 13.0352C36.8002 13.0352 35.8602 13.6656 35.4672 14.673H35.3646V13.1478H33.0518V21.7927H35.4785V16.7948Z" fill="white"/>
<path d="M47.019 21.9615C49.1838 21.9615 50.6421 20.9203 50.9839 19.3163L48.7394 19.1699C48.4945 19.8285 47.8679 20.1717 47.0589 20.1717C45.8455 20.1717 45.0765 19.3781 45.0765 18.0893V18.0837H51.0352V17.4252C51.0352 14.4873 49.2351 13.0352 46.9222 13.0352C44.3474 13.0352 42.6782 14.8418 42.6782 17.5096C42.6782 20.2506 44.3246 21.9615 47.019 21.9615ZM45.0765 16.5978C45.1278 15.6129 45.8854 14.825 46.9621 14.825C48.016 14.825 48.7451 15.5679 48.7508 16.5978H45.0765Z" fill="white"/>
<path d="M58.2298 18.1115C58.2355 19.2709 57.4323 19.8788 56.5607 19.8788C55.6435 19.8788 55.0511 19.2428 55.0454 18.2241V13.1475H52.6187V18.6518C52.6243 20.6724 53.8206 21.9049 55.5809 21.9049C56.8968 21.9049 57.8424 21.2352 58.2355 20.2221H58.3266V21.7924H60.6565V13.1475H58.2298V18.1115Z" fill="white"/>
<path d="M62.5977 21.7922H65.0244V16.9012C65.0244 15.8375 65.8106 15.1059 66.8813 15.1059C67.2175 15.1059 67.6793 15.1621 67.9073 15.2353V13.1078C67.6907 13.0572 67.3886 13.0234 67.1433 13.0234C66.1638 13.0234 65.3606 13.5863 65.0415 14.6556H64.9504V13.1473H62.5977V21.7922Z" fill="white"/>
<path d="M72.7069 21.9615C75.3618 21.9615 77.0134 20.1661 77.0134 17.504C77.0134 14.825 75.3618 13.0352 72.7069 13.0352C70.052 13.0352 68.4004 14.825 68.4004 17.504C68.4004 20.1661 70.052 21.9615 72.7069 21.9615ZM72.7183 20.1042C71.4937 20.1042 70.8668 18.9955 70.8668 17.4871C70.8668 15.9787 71.4937 14.8643 72.7183 14.8643C73.92 14.8643 74.547 15.9787 74.547 17.4871C74.547 18.9955 73.92 20.1042 72.7183 20.1042Z" fill="white"/>
<path d="M81.0193 16.7948C81.0246 15.6804 81.697 15.0276 82.6769 15.0276C83.6508 15.0276 84.2376 15.6579 84.2323 16.716V21.7927H86.6586V16.2883C86.6586 14.2734 85.4621 13.0352 83.6394 13.0352C82.3407 13.0352 81.4009 13.6656 81.0079 14.673H80.905V13.1478H78.5923V21.7927H81.0193V16.7948Z" fill="white"/>
<path d="M95.8521 15.6129C95.6355 14.0201 94.3368 13.0352 92.1263 13.0352C89.8872 13.0352 88.412 14.0595 88.418 15.7255C88.412 17.0199 89.2382 17.8586 90.9473 18.1963L92.4626 18.4946C93.2259 18.6465 93.5734 18.9223 93.5848 19.3556C93.5734 19.8678 93.0093 20.2337 92.1604 20.2337C91.2948 20.2337 90.7194 19.8678 90.571 19.1643L88.1841 19.2881C88.412 20.9428 89.8364 21.9615 92.1551 21.9615C94.4223 21.9615 96.0459 20.819 96.0512 19.1137C96.0459 17.8642 95.2197 17.1156 93.522 16.7723L91.9385 16.4571C91.1237 16.2826 90.8216 16.0069 90.8276 15.5904C90.8216 15.0726 91.4145 14.7349 92.1665 14.7349C93.0093 14.7349 93.5106 15.1908 93.6303 15.748L95.8521 15.6129Z" fill="white"/>
<path d="M0.432511 0.6087C2.46796 0.300532 4.51844 0.0987376 6.57542 0.00415794C9.11173 -0.0494874 11.41 0.403404 13.065 2.09633C16.1568 5.2645 16.2132 9.47258 16.2612 11.2315C16.261 11.9995 16.5329 12.7434 17.0298 13.334C17.673 14.2223 17.9298 14.507 18.7004 15.6129C19.3938 16.5992 19.5013 17.1108 18.5166 17.6762C17.532 18.2415 17.5498 18.4138 17.7857 18.8451C17.987 19.1548 18.0844 19.5192 18.0644 19.8867C18.0443 20.2543 17.9078 20.6063 17.674 20.8929C18.1679 21.9637 17.2239 22.1813 17.5571 23.0252C17.8901 23.8691 17.8703 24.7791 16.9724 25.3764C16.0744 25.9737 15.0605 25.9231 13.2937 25.9097C11.5269 25.8963 10.6759 25.8871 10.9098 27.8595C11.1437 29.832 11.0988 32.0986 9.89276 33.1921C8.68676 34.2856 7.61331 34.2898 6.79886 34.0494C5.98442 33.809 6.02618 34.1866 5.0008 34.6487C3.97541 35.1109 2.82786 34.8891 2.83308 34.4579C2.83308 34.298 2.98135 34.2093 3.20585 33.8451C4.10489 32.4142 3.6559 30.0817 3.3677 28.3713C3.03983 26.2203 4.07879 26.4875 5.78707 26.3451C7.00339 26.3016 8.20204 26.0442 9.32683 25.5847C10.2259 25.1412 10.1048 24.3014 9.81235 23.4967C9.40724 22.4217 10.2217 22.0524 9.27255 21.0125C9.88862 20.1645 9.72259 19.7292 9.46572 19.3248C9.12009 18.7739 8.97184 18.0806 9.98781 17.6267C11.1072 17.1294 11.2283 16.9602 10.4953 16.0452C9.6766 15.0238 9.30804 14.7123 8.62935 13.8787C8.0717 13.1906 7.50476 12.52 7.43271 11.5957C7.26246 9.40034 6.83435 5.49456 3.8355 2.94434C2.97784 2.26875 1.94516 1.84513 0.855402 1.72184C0.220542 1.61042 -0.00813353 1.50417 0.000219877 1.10286C0.00857333 0.701545 0.206968 0.634491 0.432511 0.6087Z" fill="white"/>
</g>
<defs>
<clipPath id="clip0_2085_6923">
<rect width="96.25" height="35" fill="white"/>
</clipPath>
</defs>
</svg>
