<svg width="60" height="40" viewBox="0 0 60 40" fill="none" xmlns="http://www.w3.org/2000/svg">
<g id="00 1">
<path id="Vector" opacity="0.9" fill-rule="evenodd" clip-rule="evenodd" d="M8.20667 36.6307L7.768 38.744C7.74333 38.844 7.72467 38.966 7.72667 39.074C7.73067 39.506 8.06333 39.6627 8.42267 39.6627C9.00067 39.6627 9.52533 39.142 9.696 38.3087L10.0427 36.6307H10.4433L9.76733 39.904H9.39733L9.50733 39.3093H9.49467C9.24867 39.6947 8.81933 40 8.328 40C7.75467 40 7.332 39.7453 7.32533 39.1173C7.32533 39.016 7.344 38.8827 7.37333 38.7333L7.80667 36.6307H8.20667ZM18.69 35.6407L18.488 36.6307H19.1453L19.0867 36.9667H18.4153L17.9853 39.0667C17.952 39.22 17.9407 39.276 17.9427 39.3787C17.944 39.4927 18.0033 39.6053 18.154 39.6053C18.314 39.6053 18.4673 39.592 18.626 39.568L18.558 39.9167C18.4253 39.932 18.2847 39.9433 18.1513 39.9433C17.8513 39.9433 17.5453 39.868 17.5413 39.4733C17.5413 39.4033 17.5527 39.2833 17.5813 39.1367L18.0147 36.9667H17.42L17.496 36.6307H18.0887L18.2873 35.6407H18.69ZM3.978 35.3733L3.89933 35.7413H1.286L0.950667 37.3773H3.39267L3.31267 37.7473H0.879333L0.512667 39.538H3.19L3.11133 39.904H0L0.926 35.3733H3.978ZM25.3893 0C25.2073 0.0826667 25.0273 0.168 24.8467 0.256667C22.424 1.43467 20.2 3.026 18.2353 4.982C16.1747 7.03533 14.522 9.28533 13.3267 11.6733C12.1693 13.9847 11.468 16.3587 11.2427 18.73C10.786 23.5327 12.3387 27.974 15.61 31.2307C16.29 31.908 17.0387 32.508 17.8513 33.024H12.062C10.7633 31.5613 9.74133 29.91 9.018 28.1C8.18067 26.0073 7.75667 23.7453 7.75667 21.3733C7.75667 18.2887 8.464 15.156 9.85667 12.064C11.304 8.844 13.4273 5.82933 16.1653 3.10333C17.3107 1.96133 18.524 0.926667 19.7933 0H25.3893ZM2.42933 27.9547C2.662 28.856 2.952 29.7367 3.298 30.598C3.63333 31.4333 4.018 32.2427 4.45333 33.0247H1.386L2.42933 27.9547ZM17.992 0C17.0927 0.722 16.2233 1.49867 15.3887 2.33133C12.5567 5.15267 10.3573 8.27533 8.854 11.6153C7.398 14.8493 6.65867 18.1347 6.65867 21.374C6.65867 23.8847 7.10933 26.2847 7.99733 28.5033C8.65133 30.138 9.53267 31.652 10.6293 33.0247H5.72C5.18 32.1193 4.71133 31.1747 4.31733 30.1927C3.67467 28.594 3.236 26.9153 3.00067 25.174L6.32867 8.99267C7.95533 5.98733 10.0973 3.156 12.7133 0.550667C12.9007 0.364667 13.0887 0.182 13.278 0L17.992 0ZM34.8187 6.348C36.2133 6.698 37.4527 7.38467 38.448 8.378C42.2693 12.1847 41.546 18.6407 36.7673 23.398C34.9267 25.2327 32.754 26.5067 30.5527 27.0893L30.97 25.0613C32.6793 24.55 34.3093 23.5693 35.6753 22.2093C37.85 20.0453 39.0467 17.516 39.0467 15.0913C39.0467 13.1533 38.3113 11.398 36.9187 10.0127C36.212 9.30933 35.35 8.77933 34.386 8.448L34.8187 6.348ZM34.1653 9.52267C34.914 9.80133 35.58 10.2247 36.1433 10.7847C37.3233 11.962 37.948 13.4493 37.948 15.0913C37.948 17.226 36.8653 19.478 34.8987 21.4367C33.7947 22.5367 32.5253 23.336 31.2253 23.8187L31.58 22.092C32.508 21.6947 33.388 21.1087 34.1287 20.3707C35.35 19.1547 36.0887 17.6407 36.212 16.11C36.3353 14.5673 35.836 13.152 34.8007 12.1207C34.502 11.8227 34.1607 11.572 33.7873 11.368L34.1653 9.52267ZM33.5533 12.5047C33.7213 12.62 33.8787 12.75 34.0247 12.8947C34.8273 13.6947 35.2153 14.8053 35.118 16.0213C35.016 17.2947 34.3893 18.564 33.3527 19.5967C32.9027 20.0453 32.3967 20.4273 31.8593 20.734L33.5533 12.5047ZM31.468 0L31.1107 1.73533C27.2807 2.29067 23.5487 4.22133 20.546 7.20867C20.3907 7.364 20.2393 7.52 20.0907 7.67533H17.26C17.8047 7.01733 18.388 6.37533 19.0127 5.754C21.8033 2.97467 25.066 1.04133 28.3813 0H31.468ZM11.7153 0C9.91333 1.82333 8.334 3.75 6.992 5.76867L8.17867 0H11.7153ZM5.002 39.6627C4.396 39.6627 4.11 39.244 4.10467 38.686C4.09733 37.886 4.56467 36.8713 5.48933 36.8713C6.076 36.8713 6.41133 37.2467 6.41733 37.8167C6.426 38.626 5.924 39.6627 5.002 39.6627ZM7.35 35.3733L6.41867 39.904H6.03L6.17133 39.3127H6.15733C5.88 39.7453 5.54533 40 4.966 40C4.12267 40 3.712 39.462 3.704 38.6613C3.69467 37.6573 4.37733 36.5347 5.482 36.5347C5.998 36.5347 6.40667 36.7307 6.55867 37.2467H6.572L6.94733 35.3733H7.35ZM36.1533 36.5333C36.8427 36.5333 37.3447 36.8327 37.338 37.5887H36.9347C36.9653 37.0873 36.61 36.8707 36.1573 36.8707C35.8087 36.8707 35.3433 36.9793 35.348 37.4287C35.352 37.7333 35.6773 37.8853 36.0493 38.0333C36.502 38.2093 37.122 38.3933 37.1293 38.9967C37.1333 39.732 36.4353 40 35.812 40C35.18 40 34.534 39.6567 34.5633 38.84H34.968C34.964 39.472 35.4393 39.664 35.9027 39.664C36.2593 39.664 36.73 39.4793 36.7267 39.062C36.722 38.6353 36.268 38.502 35.8333 38.338C35.3933 38.166 34.9493 37.9693 34.9447 37.4287C34.938 36.7953 35.6253 36.5333 36.1533 36.5333ZM12.456 36.5347C13.1693 36.5347 13.7133 36.89 13.696 37.6507H13.2947C13.3213 37.164 12.968 36.8713 12.496 36.8713C11.534 36.8713 11.084 37.796 11.0927 38.648C11.0987 39.2307 11.3947 39.6627 12.0187 39.6627C12.5487 39.6627 12.9273 39.3193 13.0953 38.844H13.4953C13.2607 39.5933 12.7667 40 11.9713 40C11.1553 40 10.6973 39.4553 10.6893 38.648C10.68 37.628 11.3273 36.5347 12.456 36.5347ZM38.8967 35.6413L38.6947 36.6307H39.3513L39.2913 36.9653H38.622L38.1907 39.0653C38.1587 39.2207 38.1493 39.278 38.1507 39.378C38.1507 39.4927 38.2087 39.606 38.362 39.606C38.5207 39.606 38.6727 39.5947 38.8327 39.568L38.766 39.9187C38.632 39.93 38.4913 39.9433 38.3573 39.9433C38.06 39.9433 37.7493 39.866 37.746 39.472C37.746 39.404 37.7593 39.2813 37.7893 39.1367L38.2207 36.9653H37.6273L37.7007 36.6307H38.294L38.494 35.6407H38.8967V35.6413ZM20.2413 36.6307L19.5633 39.904H19.1647L19.838 36.6307H20.2413ZM32.4107 36.6307L31.7333 39.904H31.33L32.008 36.6307H32.4107ZM34.5107 36.586C34.5813 36.586 34.6573 36.586 34.7273 36.5913L34.6407 36.9913C34.564 36.9913 34.4893 36.9853 34.412 36.9853C33.6933 36.9987 33.316 37.5753 33.19 38.192L32.8347 39.904H32.432L33.11 36.6307H33.474L33.314 37.3847H33.3267C33.576 36.9147 33.924 36.58 34.5107 36.586ZM32.6707 35.3727L32.5373 36.014H32.1353L32.2693 35.3733H32.6707V35.3727ZM20.5027 35.3727L20.368 36.014H19.968L20.1 35.3733H20.5027V35.3727ZM16.9207 8.09533L16.044 12.39H16.6873C15.4567 14.7527 14.8073 17.2433 14.8073 19.7113C14.8073 19.8687 14.8113 20.0233 14.8167 20.1793H14.4307L13.424 25.1893H16.0327C16.5987 26.36 17.354 27.4293 18.282 28.352C20.086 30.1473 22.358 31.2747 24.9387 31.6707L24.6553 33.024H20.1753C18.74 32.3953 17.4673 31.5347 16.3867 30.4593C13.35 27.4347 11.9107 23.3047 12.3347 18.8327C12.6853 15.146 14.2907 11.4193 16.9207 8.09533ZM41.2027 29.378L40.4507 33.0247H35.8107C37.7507 32.0693 39.5787 30.8413 41.2027 29.378ZM42.5093 23.034L41.594 27.474C41.4807 27.5907 41.366 27.71 41.2487 27.8247C38.912 30.1533 36.0513 31.9353 33.0213 33.0247H29.332L29.6227 31.6087C33.3107 30.9887 36.994 29.08 39.8427 26.2433C40.8527 25.2367 41.7447 24.16 42.5093 23.034ZM20.508 25.1893C20.6647 25.372 20.8267 25.5487 20.9987 25.72C22.312 27.0273 23.892 27.9 25.6427 28.296L25.162 30.596C22.7893 30.2433 20.7053 29.2187 19.058 27.5787C18.346 26.8687 17.746 26.0653 17.2667 25.1893H20.508ZM35.5373 2.85533C37.698 3.23333 39.6667 4.18067 41.2213 5.72867C43.3047 7.80333 44.4267 10.3553 44.5293 13.2067C44.5347 13.3493 44.5367 13.4947 44.5367 13.6393C44.5367 14.2507 44.492 14.876 44.3987 15.5113C43.8853 19.02 41.992 22.5567 39.0653 25.47C36.484 28.0407 33.1833 29.8053 29.8613 30.4567L30.31 28.2727C32.8793 27.71 35.422 26.2847 37.5433 24.1727C42.7647 18.9733 43.488 11.8507 39.2267 7.60533C38.072 6.45733 36.644 5.67067 35.04 5.27533L35.5373 2.85533ZM26.294 25.1887L26.2913 25.1967L25.8673 27.2253C24.436 26.8953 23.1353 26.2073 22.0293 25.1893L26.294 25.1887ZM55.8667 13.64L54.29 21.4307H51.758C52.7013 19.1647 53.3127 16.8347 53.5593 14.506C53.5887 14.2173 53.614 13.928 53.6327 13.6393H55.866L55.8667 13.64ZM48.1 13.64C48.08 14.0727 48.0453 14.5067 47.9907 14.9453C47.7233 17.1287 47.0293 19.3207 45.9573 21.43H43.4967C44.52 19.57 45.2013 17.6173 45.486 15.67C45.5867 14.9833 45.634 14.306 45.634 13.64H48.1ZM52.532 13.64C52.516 13.8913 52.4947 14.14 52.4667 14.392C52.2167 16.7587 51.5713 19.1293 50.566 21.43H47.1793C48.1713 19.3593 48.818 17.2153 49.082 15.0767C49.1407 14.5947 49.1793 14.1167 49.198 13.64H52.532ZM20.2833 12.3907C19.0253 14.4853 18.3393 16.7873 18.3393 19.038C18.3393 19.4247 18.36 19.8053 18.4007 20.1807H15.9153C15.91 20.0253 15.906 19.8693 15.906 19.7133C15.906 17.2453 16.6087 14.7467 17.934 12.3907H20.2833ZM27.0267 12.3907C26.7927 12.5767 26.5687 12.7773 26.3527 12.992C24.8913 14.4487 24.086 16.2107 24.086 17.954C24.086 18.75 24.2633 19.5073 24.5967 20.1807H22.6427C22.4913 19.632 22.4133 19.052 22.4133 18.4433C22.4133 16.3727 23.352 14.1913 25.0013 12.3907H27.0267ZM23.5627 12.3907C22.9827 13.132 22.5047 13.9147 22.1387 14.7373C21.5927 15.9613 21.3153 17.2087 21.3153 18.4433C21.3153 19.04 21.3833 19.6227 21.514 20.1807H19.5033C19.46 19.8087 19.4367 19.4273 19.4367 19.038C19.4367 16.7827 20.1973 14.4627 21.5793 12.3907H23.5627ZM39.332 0C41.074 0.639333 42.6607 1.62133 44.0033 2.958C45.3887 4.34 46.44 5.92333 47.1327 7.67467H45.668L45.1507 10.192L45.1013 10.028C44.5213 8.13467 43.4767 6.42867 41.9973 4.95467C40.692 3.65467 39.106 2.71067 37.2873 2.148C36.7873 1.99533 36.2787 1.87267 35.7587 1.78133L36.1253 0H39.332ZM47.892 0C49.9293 2.18333 51.332 4.796 52.042 7.67467H48.3053C47.5627 5.62133 46.3773 3.778 44.7793 2.18533C43.92 1.32933 42.958 0.599333 41.904 0H47.892ZM30.876 2.88267L30.4053 5.17333C28.3853 5.53733 26.4087 6.398 24.634 7.67467H21.6387C24.3867 5.05733 27.6667 3.43667 30.876 2.88267ZM30.1667 6.33467L29.892 7.67467H26.668C27.788 7.05067 28.968 6.59867 30.1667 6.33467ZM54.5333 0C55.0447 0.881333 55.4913 1.80133 55.872 2.76C56.4927 4.32467 56.93 5.97067 57.176 7.67467H53.172C52.5153 4.83733 51.2273 2.232 49.3553 0H54.5333ZM58.956 0L57.85 5.38267C57.6027 4.34733 57.2827 3.33867 56.892 2.35733C56.5707 1.54667 56.2033 0.76 55.792 0H58.956ZM16.26 38.704C16.1387 39.276 15.7313 39.6627 15.0893 39.6627C14.7073 39.6627 14.3567 39.4927 14.352 39.074C14.3453 38.388 15.154 38.3653 15.6447 38.324C15.8467 38.3087 16.2407 38.2987 16.3673 38.1407L16.3807 38.154L16.26 38.704ZM15.7673 36.5347C16.2127 36.5347 16.9093 36.688 16.9147 37.2647C16.9187 37.5833 16.7833 38.078 16.7207 38.3693C16.5813 39.1053 16.5133 39.276 16.5153 39.4733C16.5173 39.5887 16.6307 39.606 16.7273 39.606C16.7853 39.606 16.8293 39.6 16.8867 39.5927L16.8327 39.9113C16.7427 39.932 16.608 39.9433 16.5 39.9433C16.2787 39.9433 16.1553 39.8033 16.15 39.5887C16.148 39.5307 16.1527 39.466 16.1573 39.41L16.148 39.3973C15.9187 39.7773 15.47 40 15.01 40C14.412 40 13.9567 39.732 13.95 39.0913C13.944 38.3993 14.4947 38.1787 15.0793 38.078C15.5007 38.0127 15.8713 38.0447 16.1273 37.9827C16.3847 37.9207 16.5173 37.7713 16.5133 37.3433C16.5093 36.954 16.1233 36.8713 15.8147 36.8713C15.3047 36.8713 14.866 37.0607 14.788 37.6073H14.3873C14.4893 36.8647 15.0593 36.5347 15.7673 36.5347ZM31.7753 35.3733L31.7053 35.742H29.2253L28.89 37.3773H31.088L31.0213 37.7473H28.812L28.3673 39.904H27.9347L28.8653 35.3733H31.7753ZM21.8487 39.6627C21.18 39.6627 20.8573 39.2307 20.8507 38.5973C20.8433 37.8307 21.3207 36.8713 22.1987 36.8713C22.8427 36.8713 23.172 37.2913 23.178 37.9C23.1847 38.6613 22.7273 39.6627 21.8487 39.6627ZM22.2653 36.5347C23.03 36.5347 23.5707 37.012 23.5787 37.8167C23.5893 38.9213 22.992 40 21.774 40C20.9293 40 20.4573 39.4553 20.4487 38.6347C20.438 37.562 21.0913 36.5347 22.2653 36.5347ZM25.9053 36.5347C26.4787 36.5347 26.902 36.7893 26.9073 37.4147C26.9087 37.5187 26.894 37.6507 26.862 37.8053L26.4293 39.904H26.0273L26.4673 37.7913C26.4893 37.6893 26.508 37.57 26.508 37.462C26.5033 37.0293 26.1713 36.8713 25.8147 36.8713C25.234 36.8713 24.7107 37.3927 24.54 38.224L24.1947 39.904H23.7913L24.4673 36.6307H24.836L24.73 37.2267H24.74C24.984 36.838 25.4153 36.5347 25.9053 36.5347ZM28.568 12.66L27.046 20.1793H25.87C25.4193 19.5513 25.1827 18.7927 25.1827 17.9533C25.1827 16.5007 25.874 15.014 27.1293 13.7647C27.5693 13.3247 28.0567 12.954 28.568 12.66Z" fill="white"/>
</g>
</svg>
