<svg width="103" height="30" viewBox="0 0 103 30" fill="none" xmlns="http://www.w3.org/2000/svg">
<path d="M88.3976 18.3925C84.3973 18.3925 82.7748 15.3645 82.7748 12C82.7748 8.57944 84.4253 5.5514 88.3976 5.5514C92.3979 5.5514 94.0204 8.57944 94.0204 12C94.0483 15.3645 92.3979 18.3925 88.3976 18.3925ZM60.8153 18.3925C56.815 18.3925 55.1926 15.3645 55.1926 12C55.1926 8.57944 56.843 5.5514 60.8153 5.5514C64.8156 5.5514 66.4381 8.57944 66.4381 12C66.4381 15.3645 64.8156 18.3925 60.8153 18.3925ZM34.7716 18.3925C30.7713 18.3925 29.1488 15.3645 29.1488 12C29.1488 8.57944 30.7713 5.5514 34.7716 5.5514C38.7719 5.5514 40.3943 8.57944 40.3943 12C40.3943 15.3645 38.7719 18.3925 34.7716 18.3925ZM88.3976 0C81.8517 0 76.5367 2.74766 74.6065 7.6542C72.6763 2.74766 67.3612 0 60.8153 0C54.9967 0 50.1572 2.15888 47.7795 6.08412C45.4297 2.18692 40.5902 0 34.7716 0C26.4913 0 20.1692 4.40187 20.1692 11.972C20.1692 13.8785 20.5608 15.5888 21.3161 17.0748C21.2322 17.1028 21.1203 17.1589 21.0364 17.1869C20.6727 17.3271 20.2531 17.4673 19.8055 17.6075C18.6586 17.9159 17.3718 18.0841 16.085 18.0841C12.3365 18.0841 8.95166 15.729 8.95166 12.0841C8.95166 8.13084 11.833 5.7757 15.5815 5.7757C17.0081 5.80374 18.1271 5.88785 19.2461 6.28037C19.2461 6.28037 20.5329 3.4486 22.7148 1.82243C22.2952 1.62617 21.8476 1.4299 21.4001 1.23364C19.4419 0.392522 17.148 0 14.5744 0C6.29414 0 0 4.40187 0 11.972C0 19.514 6.29414 23.9159 14.5744 23.9159C16.7564 23.9159 19.1901 23.6075 21.2882 23.0187C22.0714 22.8224 23.9177 22.2056 25.2605 21.4206C27.7781 23.0467 31.079 23.9159 34.7716 23.9159C40.5902 23.9159 45.4297 21.757 47.8074 17.8318C50.1852 21.729 55.0247 23.9159 60.8433 23.9159C66.6619 23.9159 71.4734 21.757 73.8512 17.8598V30H82.7469V23.1308C84.4813 23.6355 86.3835 23.9159 88.4256 23.9159C96.7059 23.9159 103 19.5421 103 11.972C103 4.40187 96.6779 0 88.3976 0Z" fill="white"/>
</svg>
