<svg width="132" height="21" viewBox="0 0 132 21" fill="none" xmlns="http://www.w3.org/2000/svg">
<path d="M117.943 4.75898H122.345C124.503 4.75898 125.826 5.7226 125.826 7.5933V7.65013C125.826 9.32234 124.589 10.4562 122.431 10.4562H117.943L125.833 20.6596H131.119L125.776 13.7421C128.47 12.802 130.314 10.6964 130.314 7.42336V7.36653C130.314 5.49611 129.71 3.93701 128.588 2.83172C127.264 1.52795 125.279 0.819645 122.719 0.819645H113.513V20.6596H117.943V4.75898ZM78.2071 0.819645V13.0355L68.7716 0.819645L62.642 0.819925L64.6862 3.46612V20.6596H69.0588V8.31896L78.6009 20.6596H82.5797V0.819645H78.2071ZM56.0171 0.819645V13.0355L46.5816 0.819645L40.452 0.819925L42.4962 3.46612V20.6596H46.8689V8.31896L56.4112 20.6596H60.3897V0.819645H56.0171ZM95.4862 0.819645H110.676V4.70242H99.8878V8.72714H109.381V12.6102H99.8878V16.7769H110.82V20.6596H95.4862V0.819645ZM86.7568 0.819645H91.1871V20.6596H86.7568V0.819645ZM35.4656 10.7963V10.7395C35.4656 7.33826 32.9337 4.50393 29.3667 4.50393C25.7994 4.50393 23.3252 7.2817 23.3252 10.6829V10.7395C23.3252 14.1407 25.857 16.9754 29.4241 16.9754C32.9917 16.9754 35.4656 14.1976 35.4656 10.7963ZM18.6937 10.7963V10.7395C18.6937 5.09913 23.2104 0.479492 29.4241 0.479492C35.6381 0.479492 40.0971 5.04258 40.0971 10.6829V10.7395C40.0971 16.3802 35.5807 20.9998 29.3667 20.9998C23.1527 20.9998 18.6937 16.4367 18.6937 10.7963ZM9.57985 16.8334C11.5363 16.8334 12.7155 16.1531 12.7155 14.6794V14.6226C12.7155 13.2905 11.7088 12.4685 9.43606 12.4685H4.31524V16.8334H9.57985ZM8.40059 8.84053C10.3567 8.84053 11.594 8.21705 11.594 6.74306V6.68651C11.594 5.38273 10.5582 4.64559 8.68787 4.64559H4.31524V8.84053H8.40059ZM0 0.819645H9.34996C11.6511 0.819645 13.4637 1.44284 14.6143 2.57668C15.535 3.48347 15.995 4.58904 15.995 5.94937V6.0062C15.995 8.24533 14.7868 9.49228 13.3489 10.286C15.6787 11.1648 17.1172 12.4968 17.1172 15.1612V15.2178C17.1172 18.8455 14.1253 20.6596 9.57985 20.6596H0V0.819645Z" fill="white"/>
</svg>
