<svg width="134" height="36" viewBox="0 0 134 36" fill="none" xmlns="http://www.w3.org/2000/svg">
<path fill-rule="evenodd" clip-rule="evenodd" d="M30.7423 23.6963C34.2379 28.451 40.7444 29.6077 45.2734 26.2784C49.8024 22.9499 50.6406 16.3961 47.145 11.6405C47.0822 11.5547 47.0166 11.4715 46.9513 11.3887L46.9512 11.3885L46.951 11.3882L46.9236 11.3535L46.2858 6.05975C46.249 5.75087 46.0154 5.652 45.7669 5.841L42.7998 8.1055C40.4364 7.0345 37.7668 6.85075 35.3334 7.65313L32.928 5.0675C32.7163 4.83912 32.4529 4.89163 32.3444 5.183C32.3444 5.183 29.2241 13.5515 29.0999 13.9339C28.0744 17.0777 28.5661 20.7353 30.7423 23.6963ZM24.073 19.8104C24.1684 19.5619 24.2489 19.3107 24.3215 19.0588C25.3453 16.3139 26.1634 13.7265 25.3881 10.3569C24.3661 5.918 22.0413 4.028 21.4681 3.622C21.4151 3.58857 21.3536 3.57112 21.2909 3.57174C21.2282 3.57236 21.167 3.59103 21.1146 3.6255C20.6404 3.95887 19.3349 4.92575 18.0836 7.08C18.0093 7.21037 17.9366 7.34688 17.8666 7.486C16.4631 7.09307 14.9866 7.03701 13.5573 7.32237C13.2265 6.76412 12.7636 6.10262 12.1853 5.56537C9.99776 3.53275 7.45589 3.4505 6.66664 3.47675C6.42951 3.48462 6.36301 3.68062 6.36651 3.7935C6.39189 4.67725 6.52576 8.326 7.23189 11.8593C7.00001 12.2653 6.79789 12.694 6.62551 13.142L4.07751 19.8156C2.24351 24.6124 4.66901 30.0374 9.46751 31.8714C14.266 33.7045 19.6901 31.279 21.525 26.4823L24.073 19.8104ZM49.0035 5.60913L49.5504 10.1477C51.5174 12.9775 52.3635 16.3839 51.9339 19.7456C51.4614 23.4338 49.6974 26.5715 46.9639 28.5796C44.6049 30.3147 41.9956 31.2318 39.4196 31.2318C35.1418 31.2318 30.8726 29.0416 28.2818 25.5163C27.5654 24.5407 26.9862 23.4713 26.5606 22.3382L24.4711 27.8061C22.7124 32.4078 18.0871 35.5 12.9605 35.5H12.9596C11.4765 35.5 10.0196 35.2296 8.63101 34.6994C5.60089 33.5417 3.00301 31.083 1.67739 28.1211C0.384137 25.2266 0.337762 21.8885 1.54789 18.7227L4.09764 12.0509C4.18514 11.819 4.28226 11.5871 4.38726 11.357C3.88746 8.43423 3.73668 5.50623 3.67178 4.24593L3.67151 4.24063L3.65664 3.99388L3.6527 3.92102V3.92102C3.64895 3.85263 3.64569 3.79325 3.64439 3.74362L3.64351 3.71037C3.61201 2.82225 3.58401 1.98312 4.13439 1.375C4.72626 0.720273 5.41132 0.683916 6.44591 0.629009L6.45314 0.628625L6.50826 0.626L6.53452 0.624573C6.61083 0.620407 6.70069 0.6155 6.78214 0.6155C8.06664 0.6155 11.354 0.89375 14.1286 3.47238C14.4056 3.73041 14.6663 4.0054 14.9091 4.29575C15.4275 4.2763 15.9465 4.28974 16.4631 4.336C17.6374 2.71287 18.788 1.77663 19.5519 1.27437L19.635 1.21925L19.6371 1.21788C20.1241 0.897866 20.7296 0.5 21.3194 0.5C21.9643 0.5 22.5505 0.87625 23.0869 1.28312C24.4195 2.29112 26.7461 4.57487 27.9475 8.83875C28.5271 7.29055 29.1005 5.74003 29.6678 4.18725C30.0764 3.05675 31.1938 1.91313 32.5404 1.91313H32.5666C33.3926 1.92188 34.3341 2.38475 35.0193 3.12238L36.2845 4.48213C38.2999 4.14709 40.3655 4.28335 42.3194 4.88025L44.0361 3.57125C45.0599 2.79425 45.6908 2.63762 46.375 2.63762L46.4091 2.6385C47.6866 2.64812 48.8014 3.92563 49.0035 5.60913ZM9.60685 18.3305C9.78729 18.0279 9.87397 17.6786 9.85593 17.3268C9.84406 17.093 9.7862 16.8639 9.68568 16.6525C9.58516 16.4411 9.44394 16.2515 9.2701 16.0948C9.09626 15.938 8.89322 15.817 8.67259 15.7388C8.45196 15.6606 8.21807 15.6267 7.9843 15.6389C7.63248 15.6572 7.29398 15.7794 7.0116 15.99C6.72921 16.2007 6.51561 16.4903 6.39781 16.8223C6.28001 17.1543 6.2633 17.5138 6.34978 17.8553C6.43626 18.1969 6.62205 18.5051 6.88367 18.741C7.14529 18.9769 7.47099 19.13 7.8196 19.1809C8.1682 19.2317 8.52406 19.1781 8.84218 19.0267C9.1603 18.8753 9.4264 18.6331 9.60685 18.3305ZM17.8026 18.0237C17.8789 17.7998 17.9099 17.5628 17.8937 17.3268C17.8617 16.8604 17.6477 16.4252 17.2979 16.1151C16.9481 15.805 16.4905 15.6447 16.0236 15.6688C15.5567 15.6929 15.118 15.8994 14.802 16.244C14.486 16.5885 14.318 17.0433 14.3342 17.5105C14.3424 17.747 14.3976 17.9795 14.4965 18.1944C14.5955 18.4093 14.7363 18.6023 14.9106 18.7623C15.085 18.9222 15.2895 19.0458 15.5121 19.1259C15.7347 19.206 15.9711 19.241 16.2074 19.2288C16.4437 19.2166 16.6752 19.1575 16.8884 19.0549C17.1016 18.9523 17.2922 18.8083 17.4492 18.6312C17.6061 18.4542 17.7263 18.2477 17.8026 18.0237ZM47.1533 18.1681C47.2514 17.9557 47.3063 17.7259 47.3147 17.4922C47.3313 17.0298 47.1656 16.5794 46.8531 16.2381C46.5407 15.8969 46.1066 15.6921 45.6446 15.668C45.1825 15.6438 44.7295 15.8023 44.3833 16.1092C44.037 16.4161 43.8252 16.8468 43.7937 17.3084C43.7777 17.5418 43.8084 17.776 43.8838 17.9975C43.9593 18.2189 44.0781 18.4231 44.2332 18.5981C44.3884 18.7732 44.5768 18.9156 44.7876 19.0172C44.9983 19.1187 45.2272 19.1772 45.4608 19.1894C45.6944 19.2016 45.9281 19.1672 46.1483 19.0882C46.3685 19.0091 46.5707 18.8871 46.7433 18.7291C46.9158 18.5712 47.0552 18.3804 47.1533 18.1681ZM38.3377 18.179C38.4341 17.9626 38.486 17.729 38.4903 17.4922C38.5025 17.261 38.4689 17.0296 38.3916 16.8114C38.3143 16.5931 38.1948 16.3922 38.0398 16.2202C37.8849 16.0482 37.6975 15.9084 37.4885 15.8088C37.2795 15.7092 37.0529 15.6518 36.8217 15.6398C36.5905 15.6274 36.3591 15.6607 36.1407 15.7378C35.9224 15.8149 35.7214 15.9342 35.5492 16.089C35.377 16.2438 35.237 16.431 35.1372 16.64C35.0374 16.8489 34.9798 17.0754 34.9676 17.3067C34.9469 17.5427 34.974 17.7804 35.0472 18.0058C35.1204 18.2311 35.2382 18.4394 35.3936 18.6182C35.549 18.797 35.7388 18.9427 35.9517 19.0466C36.1647 19.1505 36.3963 19.2105 36.6329 19.2229C36.8695 19.2354 37.1062 19.2001 37.3288 19.1191C37.5515 19.0382 37.7555 18.9132 37.9289 18.7517C38.1022 18.5902 38.2412 18.3954 38.3377 18.179ZM45.3369 22.8331C45.246 22.7917 45.1478 22.7687 45.0479 22.7653C44.9481 22.762 44.8486 22.7783 44.755 22.8134C44.6615 22.8485 44.5758 22.9017 44.5029 22.9699C44.4299 23.0382 44.3711 23.1201 44.3298 23.2111C44.1791 23.551 43.9577 23.8548 43.6802 24.1023C43.4027 24.3498 43.0756 24.5352 42.7207 24.6461C43.2495 23.9394 43.5494 23.0878 43.5799 22.2057V22.1926C43.8011 21.9817 43.9349 21.6952 43.9544 21.3902C43.9659 21.0714 43.8527 20.7606 43.6387 20.5239C43.4248 20.2872 43.127 20.1433 42.8086 20.1227C42.4902 20.1021 42.1763 20.2064 41.9336 20.4135C41.6909 20.6206 41.5385 20.9142 41.5088 21.2318C41.4961 21.4296 41.5316 21.6275 41.6122 21.8086C41.6928 21.9897 41.8162 22.1484 41.9717 22.2713C41.923 22.8972 41.6626 23.4879 41.2332 23.9459C40.8039 24.4039 40.2313 24.702 39.6098 24.7909C38.9884 24.8799 38.3552 24.7545 37.8146 24.4353C37.274 24.1162 36.8582 23.6223 36.6359 23.0352C36.5986 22.937 36.5422 22.8472 36.4701 22.7708C36.3979 22.6945 36.3113 22.6332 36.2154 22.5904C36.1194 22.5476 36.016 22.5243 35.9109 22.5216C35.8059 22.519 35.7014 22.5371 35.6034 22.575C35.5054 22.6123 35.4158 22.6686 35.3395 22.7407C35.2633 22.8127 35.202 22.899 35.1592 22.9948C35.1164 23.0905 35.0929 23.1937 35.09 23.2986C35.0871 23.4034 35.1048 23.5078 35.1423 23.6057C35.4475 24.4077 35.9826 25.1017 36.6806 25.6009C37.3785 26.1001 38.2082 26.3822 39.0658 26.4118L39.2216 26.4145C39.7877 26.4145 40.3293 26.3025 40.8263 26.1047C41.2031 26.2202 41.5951 26.2786 41.9892 26.278C43.5869 26.278 45.0386 25.333 45.7149 23.8402C45.7982 23.6565 45.8052 23.4473 45.7343 23.2585C45.6634 23.0696 45.5205 22.9166 45.3369 22.8331ZM18.4622 26.5553C18.2704 26.4649 18.0505 26.4543 17.8508 26.5259C17.6512 26.5974 17.4881 26.7452 17.3973 26.9368C17.0924 27.5764 16.6129 28.1167 16.0143 28.4957C15.4157 28.8746 14.7222 29.0768 14.0137 29.0788C13.1542 29.0825 12.3199 28.7886 11.6525 28.2469C10.9852 27.7052 10.5259 26.9492 10.3527 26.1073C10.716 25.9216 11.0045 25.6168 11.17 25.2439C11.3355 24.871 11.3681 24.4526 11.2621 24.0586C11.1562 23.6646 10.9183 23.3189 10.588 23.0793C10.2578 22.8396 9.85537 22.7206 9.44794 22.7421C9.05609 22.7629 8.68206 22.9124 8.38387 23.1675C8.08568 23.4226 7.88 23.7689 7.79873 24.1528C7.71747 24.5367 7.76516 24.9367 7.93441 25.2907C8.10366 25.6448 8.38501 25.933 8.73481 26.1108C8.88287 27.1364 9.32753 28.0963 10.0141 28.8723C9.54204 28.7098 9.10708 28.455 8.73453 28.1227C8.36198 27.7904 8.05927 27.3873 7.84406 26.9368C7.80027 26.8401 7.73766 26.7531 7.65988 26.6808C7.58211 26.6086 7.49073 26.5525 7.39106 26.516C7.2914 26.4794 7.18545 26.463 7.0794 26.4678C6.97334 26.4726 6.8693 26.4985 6.77335 26.5439C6.67739 26.5893 6.59144 26.6534 6.52051 26.7324C6.44957 26.8114 6.39507 26.9037 6.36019 27.0039C6.3253 27.1042 6.31073 27.2104 6.31731 27.3164C6.3239 27.4223 6.35152 27.5259 6.39856 27.6211C6.8338 28.5337 7.51803 29.3049 8.37241 29.8456C9.2268 30.3863 10.2166 30.6747 11.2277 30.6775C11.6979 30.6765 12.166 30.6136 12.6198 30.4902C13.0704 30.6118 13.5386 30.6775 14.0137 30.6775C15.0248 30.6747 16.0146 30.3863 16.869 29.8456C17.7233 29.3049 18.4076 28.5337 18.8428 27.6211C18.9331 27.4292 18.9437 27.2094 18.8724 27.0097C18.8011 26.81 18.6536 26.6466 18.4622 26.5553ZM75.829 25.1074C75.829 27.0791 77.1446 28.0649 78.9503 28.0649H81.1692C81.1692 22.8908 80.7044 17.0851 80.2112 13.3908C79.8547 10.6824 78.5391 9.17529 75.8027 9.17529H74.8436C74.159 9.75229 73.2535 10.901 72.5689 12.5143L70.7612 16.8392C70.1645 18.2893 69.6432 19.7694 69.1995 21.2733C68.7893 19.6853 67.9954 17.5255 67.3644 15.9374L65.8868 12.2684C65.2033 10.5983 63.6679 9.17529 60.6539 9.17529H58.8493C57.9427 13.1439 57.2024 19.6853 57.2024 25.1074C57.2024 26.9697 58.6557 28.0649 60.2437 28.0649H62.1893C62.1893 24.9434 62.4353 18.9496 62.7635 15.7188C63.2544 17.045 63.7019 18.3867 64.1053 19.742L65.0644 22.8908C66.2423 26.7228 67.6389 28.0649 69.4182 28.0649H70.8716C71.5835 26.8846 72.3796 24.8604 72.7593 23.7117L75.3631 15.7714C75.665 18.5649 75.829 23.409 75.829 25.1074ZM83.0906 21.3017C83.0906 26.1205 85.747 28.5 90.6214 28.5C95.2517 28.5 98.3204 26.2551 98.3204 21.4394V16.074C98.3204 13.8838 97.171 13.0062 95.0866 13.0062H93.0612V21.246C93.0612 23.6265 92.0747 24.3391 90.8412 24.3391C89.4183 24.3391 88.3761 23.6549 88.3761 21.4394V16.074C88.3761 13.7745 87.3918 13.0062 85.1181 13.0062H83.0906V21.3017ZM100.374 24.8057C100.374 26.9971 101.855 28.5 105.963 28.5C110.101 28.5 112.617 26.4485 112.617 23.2187C112.617 20.6722 110.92 19.3038 108.402 18.8928C105.252 18.3726 104.924 18.1813 104.924 17.6064C104.924 16.9769 105.553 16.4556 107.498 16.4556C109.525 16.4556 111.114 16.9769 112.125 17.7157H112.262V16.156C112.262 13.9121 110.235 12.569 106.894 12.569C103.445 12.569 100.021 14.4051 100.021 18.0152C100.021 20.4252 101.445 21.658 104.156 22.0416C107.277 22.4788 107.635 22.7531 107.635 23.4363C107.635 24.1762 107.032 24.6134 105.142 24.6134C103.005 24.6134 101.497 24.0385 100.512 23.3018H100.374V24.8057ZM118.973 9.3403C117.88 9.3403 116.949 9.83322 116.262 10.3514C115.248 11.1186 114.455 12.2137 114.455 13.5842V22.916C114.455 27.0507 117.222 28.2835 119.795 28.2835C122.506 28.2835 123.658 27.1316 123.658 25.8725V23.8483H123.523C122.972 24.0679 122.399 24.1762 121.165 24.1762C120.149 24.1762 119.523 23.5729 119.523 22.5598V17.1145H121.384C122.562 17.1145 123.933 16.1287 123.933 14.8423V13.0062H119.523V9.3403H118.973ZM125.413 23.3554C125.413 26.913 127.575 28.2835 130.343 28.2835C131.956 28.2835 133.327 27.6813 133.327 25.8725V24.3391H132.697C131.244 24.3391 130.614 23.9303 130.614 22.5881V17.0599C130.614 14.321 129.656 13.4718 126.699 13.4718H125.413V23.3554ZM125.137 10.0718C125.137 11.4948 126.37 12.6457 127.876 12.6457C129.384 12.6457 130.589 11.4948 130.589 10.0718C130.589 8.64769 129.384 7.5 127.876 7.5H125.137V10.0718Z" fill="white"/>
</svg>
