<svg width="66" height="16" viewBox="0 0 66 16" fill="none" xmlns="http://www.w3.org/2000/svg">
<path d="M17.1434 5.65625H23.7391V6.88053H21.1422V13.7804H19.7203V6.88053H17.1301L17.1434 5.65625ZM23.4587 7.89855H24.6737V9.03633H24.6938C24.7405 8.87664 24.8139 8.7236 24.9208 8.57057C25.0276 8.41753 25.1611 8.27781 25.3213 8.15804C25.4748 8.02497 25.6484 7.93181 25.842 7.85197C26.0289 7.77878 26.2225 7.7322 26.4161 7.7322C26.5697 7.7322 26.6765 7.74551 26.7299 7.74551C26.7833 7.75882 26.8501 7.76547 26.9035 7.76547V9.00971C26.8167 8.98975 26.7165 8.97644 26.6231 8.96314C26.5229 8.94983 26.4362 8.94318 26.3427 8.94318C26.1224 8.94318 25.9154 8.98975 25.7218 9.07625C25.5283 9.16275 25.3614 9.29582 25.2078 9.45551C25.0676 9.62851 24.9475 9.83477 24.8607 10.081C24.7739 10.3271 24.7272 10.6199 24.7272 10.9459V13.7405H23.4254L23.4587 7.89855ZM32.8917 13.7804H31.6099V12.9554H31.5899C31.4297 13.2614 31.1893 13.4877 30.8756 13.6673C30.5618 13.8536 30.2347 13.9401 29.9076 13.9401C29.1332 13.9401 28.5724 13.7538 28.2253 13.3679C27.8781 12.9886 27.7046 12.4031 27.7046 11.6313V7.89189H29.0064V11.4982C29.0064 12.0172 29.1065 12.3898 29.3134 12.5894C29.507 12.809 29.7941 12.9154 30.1479 12.9154C30.4216 12.9154 30.6486 12.8689 30.8355 12.7824C31.0224 12.6959 31.1693 12.5894 31.2828 12.4497C31.403 12.3099 31.4764 12.137 31.5298 11.9373C31.5832 11.7444 31.6032 11.5248 31.6032 11.2986V7.88524H32.905V13.7671L32.8917 13.7804ZM35.108 11.8974C35.1548 12.2767 35.295 12.5362 35.542 12.6959C35.789 12.8489 36.0961 12.9221 36.4432 12.9221C36.5634 12.9221 36.7036 12.9088 36.8571 12.8888C37.0107 12.8689 37.1642 12.8356 37.291 12.7824C37.4312 12.7291 37.538 12.6493 37.6248 12.5428C37.7116 12.4364 37.7583 12.3033 37.745 12.1436C37.7316 11.9839 37.6782 11.8375 37.5581 11.7311C37.4379 11.6246 37.2977 11.5448 37.1241 11.4716C36.9506 11.405 36.7436 11.3518 36.5166 11.3119C36.2897 11.2653 36.0627 11.2121 35.8224 11.1589C35.582 11.1056 35.3417 11.0391 35.1147 10.9659C34.8877 10.8927 34.6875 10.7929 34.5072 10.6532C34.3337 10.5201 34.1801 10.3604 34.08 10.1542C33.9732 9.94789 33.9198 9.70835 33.9198 9.40894C33.9198 9.0829 33.9932 8.82341 34.1601 8.61049C34.3136 8.39092 34.5206 8.21793 34.7609 8.09151C35.0012 7.96508 35.2749 7.86528 35.562 7.81205C35.8557 7.75882 36.1361 7.73886 36.3965 7.73886C36.7036 7.73886 36.9973 7.77213 37.2643 7.83866C37.538 7.9052 37.7984 7.99835 38.012 8.15139C38.239 8.29111 38.4259 8.48407 38.5661 8.71695C38.7197 8.94318 38.8064 9.22928 38.8465 9.54866H37.5047C37.4379 9.23594 37.2977 9.02968 37.0774 8.92322C36.8504 8.81676 36.5968 8.76353 36.303 8.76353C36.2162 8.76353 36.0961 8.77683 35.9759 8.78349C35.8424 8.80345 35.7356 8.83006 35.6154 8.86998C35.5086 8.91656 35.4085 8.97645 35.335 9.05629C35.2616 9.12948 35.2149 9.24259 35.2149 9.36901C35.2149 9.5287 35.2683 9.64847 35.3751 9.74827C35.4819 9.84808 35.6221 9.92127 35.809 9.99446C35.9826 10.061 36.1895 10.1142 36.4165 10.1542C36.6435 10.1941 36.8838 10.254 37.1241 10.3072C37.3645 10.3604 37.5915 10.4269 37.8184 10.5001C38.0454 10.5733 38.2524 10.6731 38.4259 10.8129C38.5995 10.9459 38.753 11.1056 38.8599 11.2986C38.9667 11.4915 39.0201 11.7444 39.0201 12.0238C39.0201 12.3698 38.9466 12.6626 38.7797 12.9154C38.6195 13.155 38.4126 13.3612 38.1589 13.5143C37.9119 13.6673 37.6182 13.7738 37.3111 13.847C36.9973 13.9135 36.6902 13.9534 36.3898 13.9534C36.0226 13.9534 35.6755 13.9068 35.3551 13.8203C35.0413 13.7338 34.7542 13.6008 34.5273 13.4411C34.3003 13.2681 34.1134 13.0618 33.9865 12.8023C33.853 12.5561 33.7796 12.2501 33.7662 11.8908H35.1014V11.9041L35.108 11.8974ZM39.4073 7.89855H40.3953V6.12201H41.6971V7.88524H42.872V8.85002H41.6971V11.9906C41.6971 12.1303 41.7104 12.2368 41.7171 12.3499C41.7305 12.4497 41.7638 12.5362 41.7905 12.5961C41.8373 12.6626 41.8974 12.7158 41.9775 12.7491C42.0642 12.7824 42.1711 12.8023 42.3246 12.8023C42.4114 12.8023 42.5115 12.8023 42.5983 12.789C42.6851 12.7757 42.7852 12.7691 42.872 12.7424V13.7471C42.7318 13.7671 42.5916 13.7804 42.4448 13.7937C42.3046 13.8137 42.1711 13.8137 42.0175 13.8137C41.6704 13.8137 41.3967 13.7804 41.1897 13.7139C40.9828 13.6473 40.8225 13.5542 40.7024 13.4344C40.5822 13.3013 40.5088 13.155 40.4621 12.9687C40.4153 12.7824 40.3953 12.5561 40.3886 12.3166V8.86333H39.4006V7.87859L39.4073 7.89855ZM43.7866 7.89855H45.015V8.69699H45.035C45.2219 8.351 45.4689 8.11147 45.796 7.95843C46.1231 7.8054 46.4703 7.7322 46.8642 7.7322C47.3315 7.7322 47.732 7.8054 48.0792 7.97839C48.4263 8.13808 48.7067 8.35765 48.9403 8.65041C49.1673 8.92987 49.3409 9.26921 49.4544 9.64847C49.5679 10.0277 49.6279 10.4403 49.6279 10.8594C49.6279 11.2587 49.5745 11.6379 49.4744 12.0105C49.3676 12.3765 49.2141 12.7158 49.0071 12.9953C48.8002 13.2747 48.5398 13.5076 48.2127 13.6806C47.8856 13.8536 47.5184 13.9401 47.0845 13.9401C46.8975 13.9401 46.7039 13.9201 46.517 13.8869C46.3301 13.8536 46.1498 13.8004 45.9763 13.7272C45.8027 13.654 45.6425 13.5542 45.4956 13.4344C45.3421 13.3147 45.2219 13.1749 45.1284 13.0219H45.1084V15.9562H43.8066V7.89855H43.7866ZM48.3395 10.8461C48.3395 10.5866 48.3061 10.3271 48.2327 10.0743C48.1659 9.82812 48.0591 9.60855 47.9189 9.41559C47.7787 9.22263 47.6052 9.0696 47.4049 8.94983C47.198 8.83006 46.9576 8.77683 46.6973 8.77683C46.1565 8.77683 45.7426 8.96314 45.4556 9.3424C45.1819 9.72166 45.0417 10.234 45.0417 10.8594C45.0417 11.1655 45.075 11.4317 45.1485 11.6845C45.2219 11.9307 45.322 12.1503 45.4756 12.3366C45.6158 12.5229 45.7894 12.6626 45.9963 12.7691C46.2033 12.8755 46.4302 12.9287 46.7039 12.9287C47.011 12.9287 47.2447 12.8622 47.4516 12.7424C47.6586 12.6227 47.8188 12.463 47.9657 12.2767C48.0992 12.0837 48.1926 11.8642 48.2461 11.618C48.3061 11.3518 48.3395 11.1056 48.3395 10.8461ZM50.636 5.65625H51.9378V6.88053H50.636V5.65625ZM50.636 7.89855H51.9378V13.7804H50.636V7.89855ZM53.0994 5.65625H54.4012V13.7804H53.0994V5.65625ZM58.3866 13.9468C57.9193 13.9468 57.4921 13.8736 57.1249 13.7072C56.7577 13.5475 56.4506 13.3413 56.1903 13.0685C55.9433 12.7957 55.743 12.463 55.6162 12.0837C55.4893 11.7045 55.4092 11.2853 55.4092 10.8395C55.4092 10.3937 55.476 9.98115 55.6162 9.60189C55.7497 9.22263 55.9433 8.8966 56.1903 8.61714C56.4373 8.34434 56.7577 8.13143 57.1249 7.97839C57.4921 7.82536 57.9193 7.73886 58.3866 7.73886C58.8539 7.73886 59.2812 7.81205 59.6483 7.97839C60.0155 8.13143 60.3226 8.34434 60.583 8.61714C60.83 8.88995 61.0302 9.22263 61.1571 9.60189C61.2839 9.98115 61.364 10.3937 61.364 10.8395C61.364 11.2919 61.2973 11.7045 61.1571 12.0837C61.0169 12.463 60.83 12.789 60.583 13.0685C60.336 13.3413 60.0155 13.5542 59.6483 13.7072C59.2745 13.8603 58.8606 13.9468 58.3866 13.9468ZM58.3866 12.9154C58.667 12.9154 58.9274 12.8489 59.1343 12.7291C59.3546 12.6094 59.5148 12.4497 59.655 12.2501C59.7952 12.0571 59.8954 11.8242 59.9621 11.5913C60.0289 11.3452 60.0623 11.0923 60.0623 10.8328C60.0623 10.5866 60.0289 10.3338 59.9621 10.0876C59.8954 9.84143 59.8019 9.62185 59.655 9.4289C59.5148 9.23594 59.3413 9.0829 59.1343 8.96314C58.914 8.84337 58.667 8.77683 58.3866 8.77683C58.1062 8.77683 57.8459 8.84337 57.6389 8.96314C57.4186 9.0829 57.2584 9.24259 57.1182 9.4289C56.978 9.62185 56.8779 9.84143 56.8111 10.0876C56.7444 10.3338 56.711 10.5866 56.711 10.8328C56.711 11.0923 56.7444 11.3452 56.8111 11.5913C56.8779 11.8375 56.9713 12.0571 57.1182 12.2501C57.2651 12.443 57.432 12.6094 57.6389 12.7291C57.8526 12.8622 58.0996 12.9154 58.3866 12.9154ZM61.7512 7.89855H62.7393V6.12201H64.041V7.88524H65.216V8.85002H64.041V11.9906C64.041 12.1303 64.0544 12.2368 64.0611 12.3499C64.0744 12.4497 64.1078 12.5362 64.1345 12.5961C64.1812 12.6626 64.2413 12.7158 64.3214 12.7491C64.4082 12.7824 64.515 12.8023 64.6686 12.8023C64.7553 12.8023 64.8555 12.8023 64.9423 12.789C65.0291 12.7757 65.1292 12.7691 65.216 12.7424V13.7471C65.0758 13.7671 64.9356 13.7804 64.7887 13.7937C64.6485 13.8137 64.515 13.8137 64.3615 13.8137C64.0143 13.8137 63.7406 13.7804 63.5337 13.7139C63.3267 13.6473 63.1665 13.5542 63.0463 13.4344C62.9262 13.3013 62.8527 13.155 62.806 12.9687C62.7593 12.7824 62.7393 12.5561 62.7326 12.3166V8.86333H61.7446V7.87859V7.89855H61.7512Z" fill="black"/>
<path d="M15.6214 5.65564H9.65322L7.81737 0L5.96817 5.65564L0 5.64234L4.82661 9.14218L2.97741 14.7978L7.80402 11.298L12.6306 14.7978L10.7948 9.14218L15.6214 5.65564Z" fill="#00B67A"/>
<path d="M11.2088 10.4201L10.7949 9.14258L7.81748 11.2984L11.2088 10.4201Z" fill="#005128"/>
</svg>
