<svg width="56" height="56" viewBox="0 0 56 56" fill="none" xmlns="http://www.w3.org/2000/svg">
<path d="M41.4583 20.523L28 27.9999M28 27.9999L14.5416 20.523M28 27.9999L28 43.0416M42.25 34.426V21.5739C42.25 21.0314 42.25 20.7601 42.1701 20.5182C42.0994 20.3041 41.9838 20.1077 41.831 19.9419C41.6583 19.7546 41.4212 19.6228 40.947 19.3594L29.2303 12.8501C28.7813 12.6006 28.5567 12.4759 28.319 12.427C28.1085 12.3837 27.8915 12.3837 27.681 12.427C27.4433 12.4759 27.2187 12.6006 26.7697 12.8501L15.053 19.3594C14.5788 19.6228 14.3417 19.7546 14.169 19.9419C14.0162 20.1077 13.9006 20.3042 13.8299 20.5182C13.75 20.7601 13.75 21.0314 13.75 21.5739V34.426C13.75 34.9685 13.75 35.2398 13.8299 35.4817C13.9006 35.6957 14.0162 35.8922 14.169 36.0579C14.3417 36.2453 14.5788 36.377 15.053 36.6405L26.7697 43.1498C27.2187 43.3992 27.4433 43.524 27.681 43.5729C27.8915 43.6161 28.1085 43.6161 28.319 43.5729C28.5567 43.524 28.7813 43.3992 29.2303 43.1498L40.947 36.6405C41.4212 36.377 41.6583 36.2453 41.831 36.0579C41.9838 35.8922 42.0994 35.6957 42.1701 35.4817C42.25 35.2398 42.25 34.9685 42.25 34.426Z" stroke="#15172F" stroke-width="2" stroke-linecap="round" stroke-linejoin="round"/>
<path d="M35.125 24.0417L20.875 16.125" stroke="#15172F" stroke-width="2" stroke-linecap="round" stroke-linejoin="round"/>
</svg>
