<?xml version="1.0" encoding="utf-8"?>


<svg width="114" height="39" viewBox="0 0 114 39" fill="none" xmlns="http://www.w3.org/2000/svg">
<g clip-path="url(#clip0_11_83)">
<path fill-rule="evenodd" clip-rule="evenodd" d="M16.314 27.018V31.108H17.901C19.246 31.108 20.027 30.22 20.027 29.037C20.027 27.959 19.354 27.018 17.766 27.018H16.314ZM21.371 38.077C19.543 35.143 18.412 33.287 17.82 33.018H16.314V38.077H14V25H17.848C21.184 25 22.448 26.777 22.448 28.741C22.448 30.302 21.453 31.566 19.945 32.13V32.157C20.485 32.48 22.152 35.089 24.062 38.077H21.371V38.077ZM31.78 30.381C31.484 29.574 31.242 28.928 31.107 28.417H31.081C30.946 28.928 30.731 29.547 30.408 30.381L29.412 33.099H32.802L31.78 30.381V30.381ZM34.821 38.13L33.529 35.035H28.685L27.475 38.13H25L30.408 25H31.888L37.297 38.13H34.821V38.13ZM48.21 27.018H43.314V30.597H48.156V32.587H43.314V38.077H41V25H48.91L48.21 27.018ZM52 38.076H54.313V25H52V38.076ZM65.512 38.561C61.852 38.561 59 36.006 59 31.969C59 27.989 61.772 25 66.158 25C67.637 25 68.686 25.244 69.816 25.701L69.79 27.907C68.686 27.315 67.529 26.964 66.427 26.964C62.902 26.964 61.422 29.361 61.422 31.807C61.422 34.742 63.467 36.624 65.915 36.624C66.669 36.624 67.341 36.516 67.906 36.355V31.782H70.192V37.486C69.116 38.078 67.529 38.561 65.512 38.561ZM83.523 36.947C82.474 37.968 80.886 38.344 79.219 38.344C77.631 38.344 76.258 37.995 75.344 37.162C74.483 36.382 74 35.223 74 33.664V25H76.311V33.636C76.311 34.551 76.608 35.251 77.12 35.681C77.658 36.166 78.439 36.382 79.327 36.382C80.376 36.382 81.236 36.166 81.8 35.655C82.286 35.223 82.527 34.579 82.527 33.717V25H84.841V33.393C84.841 35.035 84.33 36.166 83.523 36.947M91.313 27.018V31.108H92.9C94.246 31.108 95.025 30.22 95.025 29.037C95.025 27.959 94.353 27.018 92.765 27.018H91.313ZM96.372 38.077C94.542 35.143 93.412 33.287 92.82 33.018H91.313V38.077H89V25H92.846C96.183 25 97.449 26.777 97.449 28.741C97.449 30.302 96.453 31.566 94.945 32.13V32.157C95.483 32.48 97.151 35.089 99.061 38.077H96.372V38.077ZM107.78 30.381C107.484 29.574 107.242 28.928 107.107 28.417H107.081C106.946 28.928 106.731 29.547 106.408 30.381L105.412 33.099H108.802L107.78 30.381V30.381ZM110.821 38.13L109.529 35.035H104.686L103.474 38.13H101L106.408 25H107.888L113.297 38.13H110.821V38.13ZM0 25V27.018H4.035V38.076H6.349V27.018H10.197L10.76 25H0ZM42.29 2.027C43.678 1.502 45.743 0.89 48.112 0.489C50.0673 0.164145 52.0459 0.000594142 54.028 0C57.865 0 61.483 0.67 65.349 2.015C65.526 2.083 65.644 2.305 65.644 2.508C65.6398 2.60105 65.6106 2.69125 65.5596 2.76917C65.5086 2.8471 65.4376 2.9099 65.354 2.951C65.248 3.003 63.9 3.569 62.102 5.035C60.8222 6.07019 59.6752 7.25953 58.687 8.576C57.967 9.56 55.817 12.188 54.725 17.775C54.43 18.985 54.281 21.688 54.287 22.779C54.287 23.021 54.054 23.157 53.817 23.155C53.583 23.153 53.357 23.016 53.357 22.782C53.357 22.731 53.377 21.672 53.251 20.228C53.141 18.943 53.017 18.3 52.921 17.778C52.781 17.0094 52.6048 16.2479 52.393 15.496C51.837 13.538 50.79 10.91 48.961 8.57C48.171 7.557 47.541 6.706 45.564 5.045C44.442 4.102 42.87 3.186 42.341 2.951C42.084 2.837 41.997 2.661 42 2.493C42.004 2.272 42.163 2.064 42.29 2.027" fill="white"/>
</g>
<defs>
<clipPath id="clip0_11_83">
<rect width="114" height="39" fill="white"/>
</clipPath>
</defs>
</svg>
