<svg width="56" height="56" viewBox="0 0 56 56" fill="none" xmlns="http://www.w3.org/2000/svg">
<path d="M27.9993 36.7083H28.0152M21.9827 43.8333H34.016C35.7895 43.8333 36.6763 43.8333 37.3537 43.4881C37.9495 43.1845 38.4339 42.7001 38.7375 42.1043C39.0827 41.4269 39.0827 40.5401 39.0827 38.7666V17.2333C39.0827 15.4598 39.0827 14.573 38.7375 13.8957C38.4339 13.2998 37.9495 12.8154 37.3537 12.5118C36.6763 12.1666 35.7895 12.1666 34.016 12.1666H21.9827C20.2092 12.1666 19.3224 12.1666 18.645 12.5118C18.0492 12.8154 17.5648 13.2998 17.2612 13.8957C16.916 14.573 16.916 15.4598 16.916 17.2333V38.7666C16.916 40.5401 16.916 41.4269 17.2612 42.1043C17.5648 42.7001 18.0492 43.1845 18.645 43.4881C19.3224 43.8333 20.2092 43.8333 21.9827 43.8333ZM28.791 36.7083C28.791 37.1455 28.4366 37.5 27.9993 37.5C27.5621 37.5 27.2077 37.1455 27.2077 36.7083C27.2077 36.2711 27.5621 35.9166 27.9993 35.9166C28.4366 35.9166 28.791 36.2711 28.791 36.7083Z" stroke="#15172F" stroke-width="2" stroke-linecap="round" stroke-linejoin="round"/>
</svg>
